<svg width="21" height="21" viewBox="0 0 21 21" fill="none" xmlns="http://www.w3.org/2000/svg">
<path d="M14.0625 8.59962C14.0625 9.68123 13.7418 10.7386 13.1409 11.6379C12.54 12.5372 11.6859 13.2382 10.6866 13.6521C9.6873 14.066 8.58772 14.1743 7.52688 13.9633C6.46605 13.7523 5.49161 13.2314 4.72679 12.4666C3.96197 11.7018 3.44112 10.7274 3.23011 9.66652C3.0191 8.60568 3.1274 7.5061 3.54131 6.50682C3.95523 5.50753 4.65618 4.65343 5.55551 4.05252C6.45484 3.4516 7.51217 3.13087 8.59378 3.13087C10.0442 3.13087 11.4352 3.70704 12.4608 4.73263C13.4864 5.75822 14.0625 7.14921 14.0625 8.59962ZM20.084 20.0899C20.0115 20.1625 19.9253 20.2201 19.8305 20.2594C19.7356 20.2987 19.634 20.319 19.5313 20.319C19.4286 20.319 19.327 20.2987 19.2321 20.2594C19.1373 20.2201 19.0511 20.1625 18.9785 20.0899L14.0899 15.2002C12.3898 16.6146 10.2099 17.3191 8.00361 17.1672C5.79733 17.0153 3.73452 16.0188 2.24426 14.3848C0.753996 12.7509 -0.0489935 10.6053 0.00231577 8.39437C0.053625 6.18346 0.955283 4.07744 2.51974 2.51437C4.0842 0.951294 6.19101 0.051498 8.40196 0.00214274C10.6129 -0.0472125 12.7578 0.757673 14.3904 2.24938C16.0231 3.74108 17.0178 5.80477 17.1677 8.01118C17.3177 10.2176 16.6112 12.3969 15.1953 14.0957L20.084 18.9844C20.1567 19.0569 20.2143 19.1431 20.2536 19.2379C20.2929 19.3328 20.3131 19.4344 20.3131 19.5371C20.3131 19.6398 20.2929 19.7414 20.2536 19.8363C20.2143 19.9311 20.1567 20.0173 20.084 20.0899ZM8.59378 15.6309C9.98443 15.6309 11.3439 15.2185 12.5001 14.4459C13.6564 13.6733 14.5576 12.5752 15.0898 11.2904C15.622 10.0056 15.7612 8.59182 15.4899 7.22789C15.2186 5.86396 14.549 4.61111 13.5656 3.62777C12.5823 2.64443 11.3294 1.97477 9.96551 1.70347C8.60158 1.43217 7.18783 1.57141 5.90304 2.10359C4.61825 2.63577 3.52011 3.53698 2.74751 4.69326C1.97491 5.84955 1.56253 7.20897 1.56253 8.59962C1.5646 10.4638 2.30605 12.251 3.62422 13.5692C4.94239 14.8873 6.72961 15.6288 8.59378 15.6309Z" fill="#051039"/>
</svg>
