<svg width="20" height="20" viewBox="0 0 20 20" fill="none" xmlns="http://www.w3.org/2000/svg">
<path d="M18.7059 16.1398C18.7567 16.2795 18.7666 16.4308 18.7345 16.5759C18.7023 16.721 18.6294 16.854 18.5243 16.9591L16.1805 19.3029C16.108 19.3756 16.0219 19.4333 15.927 19.4726C15.8322 19.512 15.7305 19.5323 15.6278 19.5324C15.6021 19.5338 15.5763 19.5338 15.5506 19.5324C15.4356 19.521 15.3245 19.4843 15.2254 19.4249C15.1263 19.3654 15.0416 19.2847 14.9774 19.1886L10.6737 12.7316L8.59654 14.8048V17.1886C8.59645 17.3955 8.51426 17.594 8.36803 17.7404C8.36803 17.7404 7.00084 19.1134 6.81725 19.2912C6.74092 19.3711 6.64835 19.4337 6.54576 19.4747C6.35456 19.5526 6.14031 19.5517 5.94983 19.4721C5.75934 19.3925 5.6081 19.2407 5.52916 19.0499L5.5233 19.0353L4.08775 15.4455L0.491074 14.007C0.371091 13.959 0.264888 13.882 0.18198 13.7828C0.0990713 13.6837 0.0420471 13.5656 0.0160153 13.439C-0.0100165 13.3124 -0.00424279 13.1814 0.0328193 13.0576C0.0698814 12.9338 0.137074 12.8211 0.228378 12.7296L1.79088 11.1671C1.86383 11.0943 1.9505 11.0365 2.04587 10.9973C2.14123 10.9581 2.24342 10.9381 2.34654 10.9386H4.72936L6.8065 8.86147L0.350449 4.55678C0.254157 4.49268 0.173302 4.408 0.113721 4.30885C0.05414 4.20969 0.0173207 4.09855 0.00592159 3.98344C-0.00547756 3.86832 0.00882795 3.75212 0.0478052 3.6432C0.0867825 3.53429 0.149459 3.4354 0.231308 3.35366L2.57506 1.00991C2.6802 0.904815 2.81314 0.831903 2.95827 0.799729C3.1034 0.767554 3.25469 0.777454 3.39439 0.828265L11.787 3.88002L14.8661 0.800921C15.3789 0.2881 16.0744 0 16.7997 0C17.1588 0 17.5144 0.0707302 17.8461 0.208152C18.1779 0.345575 18.4793 0.546997 18.7333 0.800921C18.9872 1.05484 19.1886 1.35629 19.326 1.68806C19.4635 2.01983 19.5342 2.37541 19.5342 2.73451C19.5342 3.09362 19.4635 3.4492 19.326 3.78097C19.1886 4.11273 18.9872 4.41419 18.7333 4.66811L15.6542 7.74721L18.7059 16.1398Z" fill="#051039"/>
</svg>
