<svg width="18" height="10" viewBox="0 0 18 10" fill="none" xmlns="http://www.w3.org/2000/svg">
<path d="M16.9594 1.33442L9.14692 9.14692C9.07436 9.21956 8.9882 9.27718 8.89336 9.3165C8.79851 9.35581 8.69685 9.37605 8.59418 9.37605C8.49152 9.37605 8.38985 9.35581 8.29501 9.3165C8.20017 9.27718 8.11401 9.21956 8.04145 9.14692L0.22895 1.33442C0.0823557 1.18782 0 0.989 0 0.781684C0 0.574369 0.0823557 0.375544 0.22895 0.22895C0.375544 0.0823554 0.574369 0 0.781684 0C0.989 0 1.18782 0.0823554 1.33442 0.22895L8.59418 7.48969L15.854 0.22895C15.9265 0.156364 16.0127 0.0987851 16.1075 0.0595018C16.2024 0.0202185 16.304 0 16.4067 0C16.5093 0 16.611 0.0202185 16.7058 0.0595018C16.8007 0.0987851 16.8868 0.156364 16.9594 0.22895C17.032 0.301536 17.0896 0.387708 17.1289 0.482547C17.1681 0.577385 17.1884 0.679032 17.1884 0.781684C17.1884 0.884337 17.1681 0.985984 17.1289 1.08082C17.0896 1.17566 17.032 1.26183 16.9594 1.33442Z" fill="#858791"/>
</svg>
