<svg width="19" height="21" viewBox="0 0 19 21" fill="none" xmlns="http://www.w3.org/2000/svg">
<path d="M17.1875 1.5625H14.8438V0.78125C14.8438 0.57405 14.7614 0.375336 14.6149 0.228823C14.4684 0.08231 14.2697 0 14.0625 0C13.8553 0 13.6566 0.08231 13.5101 0.228823C13.3636 0.375336 13.2812 0.57405 13.2812 0.78125V1.5625H5.46875V0.78125C5.46875 0.57405 5.38644 0.375336 5.23993 0.228823C5.09341 0.08231 4.8947 0 4.6875 0C4.4803 0 4.28159 0.08231 4.13507 0.228823C3.98856 0.375336 3.90625 0.57405 3.90625 0.78125V1.5625H1.5625C1.1481 1.5625 0.750671 1.72712 0.457646 2.02015C0.16462 2.31317 0 2.7106 0 3.125V18.75C0 19.1644 0.16462 19.5618 0.457646 19.8549C0.750671 20.1479 1.1481 20.3125 1.5625 20.3125H17.1875C17.6019 20.3125 17.9993 20.1479 18.2924 19.8549C18.5854 19.5618 18.75 19.1644 18.75 18.75V3.125C18.75 2.7106 18.5854 2.31317 18.2924 2.02015C17.9993 1.72712 17.6019 1.5625 17.1875 1.5625ZM5.07812 16.4062C4.84635 16.4062 4.61978 16.3375 4.42707 16.2088C4.23435 16.08 4.08415 15.897 3.99545 15.6828C3.90676 15.4687 3.88355 15.2331 3.92877 15.0058C3.97398 14.7784 4.08559 14.5696 4.24948 14.4057C4.41337 14.2418 4.62218 14.1302 4.8495 14.085C5.07682 14.0398 5.31245 14.063 5.52658 14.1517C5.74071 14.2404 5.92374 14.3906 6.0525 14.5833C6.18127 14.776 6.25 15.0026 6.25 15.2344C6.25 15.5452 6.12653 15.8432 5.90677 16.063C5.687 16.2828 5.38893 16.4062 5.07812 16.4062ZM9.375 16.4062C9.14322 16.4062 8.91666 16.3375 8.72394 16.2088C8.53123 16.08 8.38103 15.897 8.29233 15.6828C8.20363 15.4687 8.18042 15.2331 8.22564 15.0058C8.27086 14.7784 8.38247 14.5696 8.54636 14.4057C8.71025 14.2418 8.91906 14.1302 9.14638 14.085C9.3737 14.0398 9.60932 14.063 9.82346 14.1517C10.0376 14.2404 10.2206 14.3906 10.3494 14.5833C10.4781 14.776 10.5469 15.0026 10.5469 15.2344C10.5469 15.5452 10.4234 15.8432 10.2036 16.063C9.98387 16.2828 9.6858 16.4062 9.375 16.4062ZM9.375 12.5C9.14322 12.5 8.91666 12.4313 8.72394 12.3025C8.53123 12.1737 8.38103 11.9907 8.29233 11.7766C8.20363 11.5624 8.18042 11.3268 8.22564 11.0995C8.27086 10.8722 8.38247 10.6634 8.54636 10.4995C8.71025 10.3356 8.91906 10.224 9.14638 10.1788C9.3737 10.1335 9.60932 10.1568 9.82346 10.2455C10.0376 10.3342 10.2206 10.4844 10.3494 10.6771C10.4781 10.8698 10.5469 11.0963 10.5469 11.3281C10.5469 11.6389 10.4234 11.937 10.2036 12.1568C9.98387 12.3765 9.6858 12.5 9.375 12.5ZM13.6719 16.4062C13.4401 16.4062 13.2135 16.3375 13.0208 16.2088C12.8281 16.08 12.6779 15.897 12.5892 15.6828C12.5005 15.4687 12.4773 15.2331 12.5225 15.0058C12.5677 14.7784 12.6793 14.5696 12.8432 14.4057C13.0071 14.2418 13.2159 14.1302 13.4433 14.085C13.6706 14.0398 13.9062 14.063 14.1203 14.1517C14.3345 14.2404 14.5175 14.3906 14.6463 14.5833C14.775 14.776 14.8438 15.0026 14.8438 15.2344C14.8438 15.5452 14.7203 15.8432 14.5005 16.063C14.2807 16.2828 13.9827 16.4062 13.6719 16.4062ZM13.6719 12.5C13.4401 12.5 13.2135 12.4313 13.0208 12.3025C12.8281 12.1737 12.6779 11.9907 12.5892 11.7766C12.5005 11.5624 12.4773 11.3268 12.5225 11.0995C12.5677 10.8722 12.6793 10.6634 12.8432 10.4995C13.0071 10.3356 13.2159 10.224 13.4433 10.1788C13.6706 10.1335 13.9062 10.1568 14.1203 10.2455C14.3345 10.3342 14.5175 10.4844 14.6463 10.6771C14.775 10.8698 14.8438 11.0963 14.8438 11.3281C14.8438 11.6389 14.7203 11.937 14.5005 12.1568C14.2807 12.3765 13.9827 12.5 13.6719 12.5ZM17.1875 6.25H1.5625V3.125H3.90625V3.90625C3.90625 4.11345 3.98856 4.31216 4.13507 4.45868C4.28159 4.60519 4.4803 4.6875 4.6875 4.6875C4.8947 4.6875 5.09341 4.60519 5.23993 4.45868C5.38644 4.31216 5.46875 4.11345 5.46875 3.90625V3.125H13.2812V3.90625C13.2812 4.11345 13.3636 4.31216 13.5101 4.45868C13.6566 4.60519 13.8553 4.6875 14.0625 4.6875C14.2697 4.6875 14.4684 4.60519 14.6149 4.45868C14.7614 4.31216 14.8438 4.11345 14.8438 3.90625V3.125H17.1875V6.25Z" fill="#051039"/>
</svg>
